<?xml version="1.0" encoding="UTF-8" standalone="no"?>
<!DOCTYPE svg PUBLIC "-//W3C//DTD SVG 1.1//EN"
 "http://www.w3.org/Graphics/SVG/1.1/DTD/svg11.dtd">
<!-- Generated by graphviz version 2.30.1 (20150306.0020)
 -->
<!-- Title: traced_vlib_graph_nodes Pages: 1 -->
<svg width="476pt" height="670pt"
 viewBox="0.00 0.00 476.00 669.63" xmlns="http://www.w3.org/2000/svg" xmlns:xlink="http://www.w3.org/1999/xlink">
<g id="graph0" class="graph" transform="scale(1 1) rotate(0) translate(4 665.632)">
<title>traced_vlib_graph_nodes</title>
<polygon fill="white" stroke="white" points="-4,5 -4,-665.632 473,-665.632 473,5 -4,5"/>
<!-- dpdk&#45;input -->
<g id="node1" class="node"><title>dpdk&#45;input</title>
<ellipse fill="blue" stroke="blue" cx="18" cy="-467" rx="18" ry="18"/>
<text text-anchor="middle" x="18" y="-463.3" font-family="Times,serif" font-size="14.00">dpdk&#45;input</text>
</g>
<!-- error&#45;drop -->
<g id="node2" class="node"><title>error&#45;drop</title>
<ellipse fill="none" stroke="black" cx="306" cy="-640" rx="18" ry="18"/>
<text text-anchor="middle" x="306" y="-636.3" font-family="Times,serif" font-size="14.00">error&#45;drop</text>
</g>
<!-- dpdk&#45;input&#45;&gt;error&#45;drop -->
<g id="edge1" class="edge"><title>dpdk&#45;input&#45;&gt;error&#45;drop</title>
<path fill="none" stroke="black" d="M28.7442,-481.627C31.2267,-485.577 33.8099,-489.895 36,-494 54.543,-528.759 49.1166,-542.932 72,-575 97.3906,-610.581 105.176,-621.915 144,-642 187.042,-664.267 204.122,-664.491 252,-657 261.195,-655.561 270.973,-652.799 279.594,-649.913"/>
<polygon fill="black" stroke="black" points="280.829,-653.188 289.078,-646.539 278.484,-646.593 280.829,-653.188"/>
</g>
<!-- ethernet&#45;input -->
<g id="node3" class="node"><title>ethernet&#45;input</title>
<ellipse fill="none" stroke="black" cx="90" cy="-494" rx="18" ry="18"/>
<text text-anchor="middle" x="90" y="-490.3" font-family="Times,serif" font-size="14.00">ethernet&#45;input</text>
</g>
<!-- dpdk&#45;input&#45;&gt;ethernet&#45;input -->
<g id="edge2" class="edge"><title>dpdk&#45;input&#45;&gt;ethernet&#45;input</title>
<path fill="none" stroke="black" d="M35.2354,-473.262C43.6285,-476.5 54.0656,-480.525 63.5048,-484.166"/>
<polygon fill="black" stroke="black" points="62.2631,-487.438 72.8527,-487.772 64.7822,-480.907 62.2631,-487.438"/>
</g>
<!-- ip4&#45;input -->
<g id="node4" class="node"><title>ip4&#45;input</title>
<ellipse fill="none" stroke="black" cx="90" cy="-440" rx="18" ry="18"/>
<text text-anchor="middle" x="90" y="-436.3" font-family="Times,serif" font-size="14.00">ip4&#45;input</text>
</g>
<!-- dpdk&#45;input&#45;&gt;ip4&#45;input -->
<g id="edge3" class="edge"><title>dpdk&#45;input&#45;&gt;ip4&#45;input</title>
<path fill="none" stroke="black" d="M35.2354,-460.738C43.6285,-457.5 54.0656,-453.475 63.5048,-449.834"/>
<polygon fill="black" stroke="black" points="64.7822,-453.093 72.8527,-446.228 62.2631,-446.562 64.7822,-453.093"/>
</g>
<!-- ip4&#45;input&#45;no&#45;checksum -->
<g id="node5" class="node"><title>ip4&#45;input&#45;no&#45;checksum</title>
<ellipse fill="blue" stroke="blue" cx="90" cy="-548" rx="18" ry="18"/>
<text text-anchor="middle" x="90" y="-544.3" font-family="Times,serif" font-size="14.00">ip4&#45;input&#45;no&#45;checksum</text>
</g>
<!-- dpdk&#45;input&#45;&gt;ip4&#45;input&#45;no&#45;checksum -->
<g id="edge4" class="edge"><title>dpdk&#45;input&#45;&gt;ip4&#45;input&#45;no&#45;checksum</title>
<path fill="none" stroke="black" d="M30.5591,-480.376C41.5679,-493.114 58.3031,-512.479 71.0478,-527.227"/>
<polygon fill="black" stroke="black" points="68.4692,-529.596 77.656,-534.873 73.7655,-525.019 68.4692,-529.596"/>
</g>
<!-- ip6&#45;input -->
<g id="node6" class="node"><title>ip6&#45;input</title>
<ellipse fill="none" stroke="black" cx="90" cy="-386" rx="18" ry="18"/>
<text text-anchor="middle" x="90" y="-382.3" font-family="Times,serif" font-size="14.00">ip6&#45;input</text>
</g>
<!-- dpdk&#45;input&#45;&gt;ip6&#45;input -->
<g id="edge5" class="edge"><title>dpdk&#45;input&#45;&gt;ip6&#45;input</title>
<path fill="none" stroke="black" d="M30.5591,-453.624C41.5679,-440.886 58.3031,-421.521 71.0478,-406.773"/>
<polygon fill="black" stroke="black" points="73.7655,-408.981 77.656,-399.127 68.4692,-404.404 73.7655,-408.981"/>
</g>
<!-- mpls&#45;input -->
<g id="node7" class="node"><title>mpls&#45;input</title>
<ellipse fill="none" stroke="black" cx="90" cy="-332" rx="18" ry="18"/>
<text text-anchor="middle" x="90" y="-328.3" font-family="Times,serif" font-size="14.00">mpls&#45;input</text>
</g>
<!-- dpdk&#45;input&#45;&gt;mpls&#45;input -->
<g id="edge6" class="edge"><title>dpdk&#45;input&#45;&gt;mpls&#45;input</title>
<path fill="none" stroke="black" d="M26.3782,-450.624C36.1688,-429.223 54.2884,-390.734 72,-359 72.6378,-357.857 73.3026,-356.696 73.9841,-355.528"/>
<polygon fill="black" stroke="black" points="77.1564,-357.047 79.3608,-346.684 71.1751,-353.411 77.1564,-357.047"/>
</g>
<!-- ip4&#45;input&#45;no&#45;checksum&#45;&gt;error&#45;drop -->
<g id="edge12" class="edge"><title>ip4&#45;input&#45;no&#45;checksum&#45;&gt;error&#45;drop</title>
<path fill="none" stroke="black" d="M98.0294,-564.475C106.322,-581.706 121.841,-608.012 144,-621 185.849,-645.528 244.322,-645.642 278.067,-643.097"/>
<polygon fill="black" stroke="black" points="278.452,-646.576 288.102,-642.205 277.832,-639.604 278.452,-646.576"/>
</g>
<!-- error&#45;punt -->
<g id="node11" class="node"><title>error&#45;punt</title>
<ellipse fill="none" stroke="black" cx="378" cy="-215" rx="18" ry="18"/>
<text text-anchor="middle" x="378" y="-211.3" font-family="Times,serif" font-size="14.00">error&#45;punt</text>
</g>
<!-- ip4&#45;input&#45;no&#45;checksum&#45;&gt;error&#45;punt -->
<g id="edge13" class="edge"><title>ip4&#45;input&#45;no&#45;checksum&#45;&gt;error&#45;punt</title>
<path fill="none" stroke="black" d="M108.099,-551.465C139.952,-556.885 209.028,-563.644 252,-531 346.149,-459.478 369.496,-306.281 375.196,-243.116"/>
<polygon fill="black" stroke="black" points="378.689,-243.344 376.018,-233.091 371.712,-242.771 378.689,-243.344"/>
</g>
<!-- ip4&#45;drop -->
<g id="node14" class="node"><title>ip4&#45;drop</title>
<ellipse fill="none" stroke="black" cx="234" cy="-504" rx="18" ry="18"/>
<text text-anchor="middle" x="234" y="-500.3" font-family="Times,serif" font-size="14.00">ip4&#45;drop</text>
</g>
<!-- ip4&#45;input&#45;no&#45;checksum&#45;&gt;ip4&#45;drop -->
<g id="edge14" class="edge"><title>ip4&#45;input&#45;no&#45;checksum&#45;&gt;ip4&#45;drop</title>
<path fill="none" stroke="black" d="M107.289,-542.953C131.555,-535.434 177.454,-521.211 206.568,-512.19"/>
<polygon fill="black" stroke="black" points="207.947,-515.427 216.463,-509.124 205.875,-508.741 207.947,-515.427"/>
</g>
<!-- ip4&#45;icmp&#45;error -->
<g id="node15" class="node"><title>ip4&#45;icmp&#45;error</title>
<ellipse fill="none" stroke="black" cx="234" cy="-18" rx="18" ry="18"/>
<text text-anchor="middle" x="234" y="-14.3" font-family="Times,serif" font-size="14.00">ip4&#45;icmp&#45;error</text>
</g>
<!-- ip4&#45;input&#45;no&#45;checksum&#45;&gt;ip4&#45;icmp&#45;error -->
<g id="edge15" class="edge"><title>ip4&#45;input&#45;no&#45;checksum&#45;&gt;ip4&#45;icmp&#45;error</title>
<path fill="none" stroke="black" d="M101.374,-534.015C103.913,-529.991 106.368,-525.475 108,-521 147.975,-411.405 117.442,-374.595 144,-261 167.037,-162.464 172.73,-136.475 216,-45 216.56,-43.817 217.161,-42.6224 217.791,-41.4285"/>
<polygon fill="black" stroke="black" points="220.986,-42.8954 222.984,-32.4906 214.934,-39.3785 220.986,-42.8954"/>
</g>
<!-- ip4&#45;lookup -->
<g id="node16" class="node"><title>ip4&#45;lookup</title>
<ellipse fill="blue" stroke="blue" cx="162" cy="-288" rx="18" ry="18"/>
<text text-anchor="middle" x="162" y="-284.3" font-family="Times,serif" font-size="14.00">ip4&#45;lookup</text>
</g>
<!-- ip4&#45;input&#45;no&#45;checksum&#45;&gt;ip4&#45;lookup -->
<g id="edge16" class="edge"><title>ip4&#45;input&#45;no&#45;checksum&#45;&gt;ip4&#45;lookup</title>
<path fill="none" stroke="black" d="M101.298,-533.635C103.776,-529.683 106.219,-525.299 108,-521 137.266,-450.365 151.863,-360.669 157.744,-315.969"/>
<polygon fill="black" stroke="black" points="161.239,-316.226 159.024,-305.866 154.294,-315.346 161.239,-316.226"/>
</g>
<!-- ip4&#45;mfib&#45;forward&#45;lookup -->
<g id="node17" class="node"><title>ip4&#45;mfib&#45;forward&#45;lookup</title>
<ellipse fill="none" stroke="black" cx="162" cy="-594" rx="18" ry="18"/>
<text text-anchor="middle" x="162" y="-590.3" font-family="Times,serif" font-size="14.00">ip4&#45;mfib&#45;forward&#45;lookup</text>
</g>
<!-- ip4&#45;input&#45;no&#45;checksum&#45;&gt;ip4&#45;mfib&#45;forward&#45;lookup -->
<g id="edge17" class="edge"><title>ip4&#45;input&#45;no&#45;checksum&#45;&gt;ip4&#45;mfib&#45;forward&#45;lookup</title>
<path fill="none" stroke="black" d="M105.504,-557.531C114.89,-563.699 127.312,-571.862 138.023,-578.901"/>
<polygon fill="black" stroke="black" points="136.235,-581.914 146.515,-584.481 140.08,-576.064 136.235,-581.914"/>
</g>
<!-- ip4&#45;icmp&#45;echo&#45;request -->
<g id="node8" class="node"><title>ip4&#45;icmp&#45;echo&#45;request</title>
<ellipse fill="blue" stroke="blue" cx="378" cy="-53" rx="18" ry="18"/>
<text text-anchor="middle" x="378" y="-49.3" font-family="Times,serif" font-size="14.00">ip4&#45;icmp&#45;echo&#45;request</text>
</g>
<!-- ip4&#45;load&#45;balance -->
<g id="node9" class="node"><title>ip4&#45;load&#45;balance</title>
<ellipse fill="none" stroke="black" cx="450" cy="-53" rx="18" ry="18"/>
<text text-anchor="middle" x="450" y="-49.3" font-family="Times,serif" font-size="14.00">ip4&#45;load&#45;balance</text>
</g>
<!-- ip4&#45;icmp&#45;echo&#45;request&#45;&gt;ip4&#45;load&#45;balance -->
<g id="edge7" class="edge"><title>ip4&#45;icmp&#45;echo&#45;request&#45;&gt;ip4&#45;load&#45;balance</title>
<path fill="none" stroke="black" d="M396.303,-53C404.017,-53 413.288,-53 421.888,-53"/>
<polygon fill="black" stroke="black" points="421.896,-56.5001 431.896,-53 421.896,-49.5001 421.896,-56.5001"/>
</g>
<!-- ip4&#45;icmp&#45;input -->
<g id="node10" class="node"><title>ip4&#45;icmp&#45;input</title>
<ellipse fill="blue" stroke="blue" cx="306" cy="-134" rx="18" ry="18"/>
<text text-anchor="middle" x="306" y="-130.3" font-family="Times,serif" font-size="14.00">ip4&#45;icmp&#45;input</text>
</g>
<!-- ip4&#45;icmp&#45;input&#45;&gt;error&#45;punt -->
<g id="edge8" class="edge"><title>ip4&#45;icmp&#45;input&#45;&gt;error&#45;punt</title>
<path fill="none" stroke="black" d="M318.559,-147.376C329.568,-160.114 346.303,-179.479 359.048,-194.227"/>
<polygon fill="black" stroke="black" points="356.469,-196.596 365.656,-201.873 361.766,-192.019 356.469,-196.596"/>
</g>
<!-- ip4&#45;icmp&#45;echo&#45;reply -->
<g id="node12" class="node"><title>ip4&#45;icmp&#45;echo&#45;reply</title>
<ellipse fill="none" stroke="black" cx="378" cy="-107" rx="18" ry="18"/>
<text text-anchor="middle" x="378" y="-103.3" font-family="Times,serif" font-size="14.00">ip4&#45;icmp&#45;echo&#45;reply</text>
</g>
<!-- ip4&#45;icmp&#45;input&#45;&gt;ip4&#45;icmp&#45;echo&#45;reply -->
<g id="edge9" class="edge"><title>ip4&#45;icmp&#45;input&#45;&gt;ip4&#45;icmp&#45;echo&#45;reply</title>
<path fill="none" stroke="black" d="M323.235,-127.738C331.629,-124.5 342.066,-120.475 351.505,-116.834"/>
<polygon fill="black" stroke="black" points="352.782,-120.093 360.853,-113.228 350.263,-113.562 352.782,-120.093"/>
</g>
<!-- ip4&#45;icmp&#45;input&#45;&gt;ip4&#45;icmp&#45;echo&#45;request -->
<g id="edge10" class="edge"><title>ip4&#45;icmp&#45;input&#45;&gt;ip4&#45;icmp&#45;echo&#45;request</title>
<path fill="none" stroke="black" d="M318.559,-120.624C329.568,-107.886 346.303,-88.5207 359.048,-73.7732"/>
<polygon fill="black" stroke="black" points="361.766,-75.9813 365.656,-66.1266 356.469,-71.4042 361.766,-75.9813"/>
</g>
<!-- vpe&#45;icmp4&#45;oam -->
<g id="node13" class="node"><title>vpe&#45;icmp4&#45;oam</title>
<ellipse fill="none" stroke="black" cx="378" cy="-161" rx="18" ry="18"/>
<text text-anchor="middle" x="378" y="-157.3" font-family="Times,serif" font-size="14.00">vpe&#45;icmp4&#45;oam</text>
</g>
<!-- ip4&#45;icmp&#45;input&#45;&gt;vpe&#45;icmp4&#45;oam -->
<g id="edge11" class="edge"><title>ip4&#45;icmp&#45;input&#45;&gt;vpe&#45;icmp4&#45;oam</title>
<path fill="none" stroke="black" d="M323.235,-140.262C331.629,-143.5 342.066,-147.525 351.505,-151.166"/>
<polygon fill="black" stroke="black" points="350.263,-154.438 360.853,-154.772 352.782,-147.907 350.263,-154.438"/>
</g>
<!-- ip4&#45;arp -->
<g id="node21" class="node"><title>ip4&#45;arp</title>
<ellipse fill="none" stroke="black" cx="234" cy="-126" rx="18" ry="18"/>
<text text-anchor="middle" x="234" y="-122.3" font-family="Times,serif" font-size="14.00">ip4&#45;arp</text>
</g>
<!-- ip4&#45;lookup&#45;&gt;ip4&#45;arp -->
<g id="edge23" class="edge"><title>ip4&#45;lookup&#45;&gt;ip4&#45;arp</title>
<path fill="none" stroke="black" d="M168.543,-270.933C177.261,-244.877 195.327,-193.898 216,-153 216.59,-151.832 217.217,-150.65 217.867,-149.466"/>
<polygon fill="black" stroke="black" points="221.054,-150.952 223.132,-140.563 215.029,-147.388 221.054,-150.952"/>
</g>
<!-- ip4&#45;lookup&#45;&gt;ip4&#45;drop -->
<g id="edge24" class="edge"><title>ip4&#45;lookup&#45;&gt;ip4&#45;drop</title>
<path fill="none" stroke="black" d="M166.152,-305.518C172.66,-339.59 189.253,-416.727 216,-477 216.531,-478.196 217.108,-479.401 217.72,-480.604"/>
<polygon fill="black" stroke="black" points="214.845,-482.628 222.846,-489.573 220.922,-479.154 214.845,-482.628"/>
</g>
<!-- ip4&#45;glean -->
<g id="node22" class="node"><title>ip4&#45;glean</title>
<ellipse fill="none" stroke="black" cx="234" cy="-72" rx="18" ry="18"/>
<text text-anchor="middle" x="234" y="-68.3" font-family="Times,serif" font-size="14.00">ip4&#45;glean</text>
</g>
<!-- ip4&#45;lookup&#45;&gt;ip4&#45;glean -->
<g id="edge25" class="edge"><title>ip4&#45;lookup&#45;&gt;ip4&#45;glean</title>
<path fill="none" stroke="black" d="M166.152,-270.482C172.66,-236.41 189.253,-159.273 216,-99 216.531,-97.8038 217.108,-96.5985 217.72,-95.3959"/>
<polygon fill="black" stroke="black" points="220.922,-96.8459 222.846,-86.4271 214.845,-93.3724 220.922,-96.8459"/>
</g>
<!-- ip4&#45;lookup&#45;&gt;ip4&#45;icmp&#45;error -->
<g id="edge26" class="edge"><title>ip4&#45;lookup&#45;&gt;ip4&#45;icmp&#45;error</title>
<path fill="none" stroke="black" d="M164.771,-269.987C169.276,-228.801 183.219,-125.128 216,-45 216.496,-43.7888 217.044,-42.5712 217.632,-41.3587"/>
<polygon fill="black" stroke="black" points="220.843,-42.7897 222.676,-32.3547 214.735,-39.3689 220.843,-42.7897"/>
</g>
<!-- ip4&#45;local -->
<g id="node18" class="node"><title>ip4&#45;local</title>
<ellipse fill="blue" stroke="blue" cx="234" cy="-180" rx="18" ry="18"/>
<text text-anchor="middle" x="234" y="-176.3" font-family="Times,serif" font-size="14.00">ip4&#45;local</text>
</g>
<!-- ip4&#45;lookup&#45;&gt;ip4&#45;local -->
<g id="edge27" class="edge"><title>ip4&#45;lookup&#45;&gt;ip4&#45;local</title>
<path fill="none" stroke="black" d="M172.733,-272.983C184.435,-254.929 204.206,-224.425 217.896,-203.304"/>
<polygon fill="black" stroke="black" points="220.848,-205.185 223.349,-194.889 214.973,-201.377 220.848,-205.185"/>
</g>
<!-- ip4&#45;mcast&#45;midchain -->
<g id="node23" class="node"><title>ip4&#45;mcast&#45;midchain</title>
<ellipse fill="none" stroke="black" cx="234" cy="-450" rx="18" ry="18"/>
<text text-anchor="middle" x="234" y="-446.3" font-family="Times,serif" font-size="14.00">ip4&#45;mcast&#45;midchain</text>
</g>
<!-- ip4&#45;lookup&#45;&gt;ip4&#45;mcast&#45;midchain -->
<g id="edge28" class="edge"><title>ip4&#45;lookup&#45;&gt;ip4&#45;mcast&#45;midchain</title>
<path fill="none" stroke="black" d="M168.543,-305.067C177.261,-331.123 195.327,-382.102 216,-423 216.59,-424.168 217.217,-425.35 217.867,-426.534"/>
<polygon fill="black" stroke="black" points="215.029,-428.612 223.132,-435.437 221.054,-425.048 215.029,-428.612"/>
</g>
<!-- ip4&#45;midchain -->
<g id="node24" class="node"><title>ip4&#45;midchain</title>
<ellipse fill="none" stroke="black" cx="234" cy="-396" rx="18" ry="18"/>
<text text-anchor="middle" x="234" y="-392.3" font-family="Times,serif" font-size="14.00">ip4&#45;midchain</text>
</g>
<!-- ip4&#45;lookup&#45;&gt;ip4&#45;midchain -->
<g id="edge29" class="edge"><title>ip4&#45;lookup&#45;&gt;ip4&#45;midchain</title>
<path fill="none" stroke="black" d="M172.733,-303.017C184.435,-321.071 204.206,-351.575 217.896,-372.696"/>
<polygon fill="black" stroke="black" points="214.973,-374.623 223.349,-381.111 220.848,-370.815 214.973,-374.623"/>
</g>
<!-- ip4&#45;punt -->
<g id="node25" class="node"><title>ip4&#45;punt</title>
<ellipse fill="none" stroke="black" cx="234" cy="-342" rx="18" ry="18"/>
<text text-anchor="middle" x="234" y="-338.3" font-family="Times,serif" font-size="14.00">ip4&#45;punt</text>
</g>
<!-- ip4&#45;lookup&#45;&gt;ip4&#45;punt -->
<g id="edge30" class="edge"><title>ip4&#45;lookup&#45;&gt;ip4&#45;punt</title>
<path fill="none" stroke="black" d="M176.83,-298.669C186.609,-306.213 199.92,-316.481 211.13,-325.129"/>
<polygon fill="black" stroke="black" points="209.143,-328.017 219.199,-331.354 213.419,-322.474 209.143,-328.017"/>
</g>
<!-- ip4&#45;rewrite -->
<g id="node26" class="node"><title>ip4&#45;rewrite</title>
<ellipse fill="none" stroke="black" cx="234" cy="-288" rx="18" ry="18"/>
<text text-anchor="middle" x="234" y="-284.3" font-family="Times,serif" font-size="14.00">ip4&#45;rewrite</text>
</g>
<!-- ip4&#45;lookup&#45;&gt;ip4&#45;rewrite -->
<g id="edge31" class="edge"><title>ip4&#45;lookup&#45;&gt;ip4&#45;rewrite</title>
<path fill="none" stroke="black" d="M180.303,-288C188.017,-288 197.288,-288 205.888,-288"/>
<polygon fill="black" stroke="black" points="205.896,-291.5 215.896,-288 205.896,-284.5 205.896,-291.5"/>
</g>
<!-- ip4&#45;rewrite&#45;mcast -->
<g id="node27" class="node"><title>ip4&#45;rewrite&#45;mcast</title>
<ellipse fill="none" stroke="black" cx="234" cy="-234" rx="18" ry="18"/>
<text text-anchor="middle" x="234" y="-230.3" font-family="Times,serif" font-size="14.00">ip4&#45;rewrite&#45;mcast</text>
</g>
<!-- ip4&#45;lookup&#45;&gt;ip4&#45;rewrite&#45;mcast -->
<g id="edge32" class="edge"><title>ip4&#45;lookup&#45;&gt;ip4&#45;rewrite&#45;mcast</title>
<path fill="none" stroke="black" d="M176.83,-277.331C186.609,-269.787 199.92,-259.519 211.13,-250.871"/>
<polygon fill="black" stroke="black" points="213.419,-253.526 219.199,-244.646 209.143,-247.983 213.419,-253.526"/>
</g>
<!-- ip4&#45;local&#45;&gt;error&#45;drop -->
<g id="edge18" class="edge"><title>ip4&#45;local&#45;&gt;error&#45;drop</title>
<path fill="none" stroke="black" d="M245.421,-193.969C247.96,-197.992 250.403,-202.512 252,-207 303.694,-352.278 306.685,-540.367 305.745,-611.27"/>
<polygon fill="black" stroke="black" points="302.239,-611.56 305.567,-621.619 309.238,-611.68 302.239,-611.56"/>
</g>
<!-- ip4&#45;local&#45;&gt;error&#45;punt -->
<g id="edge19" class="edge"><title>ip4&#45;local&#45;&gt;error&#45;punt</title>
<path fill="none" stroke="black" d="M251.828,-183.161C269.797,-186.636 299.059,-192.585 324,-199 332.735,-201.247 342.189,-203.997 350.659,-206.578"/>
<polygon fill="black" stroke="black" points="349.802,-209.977 360.39,-209.599 351.878,-203.292 349.802,-209.977"/>
</g>
<!-- gre4&#45;input -->
<g id="node19" class="node"><title>gre4&#45;input</title>
<ellipse fill="none" stroke="black" cx="306" cy="-280" rx="18" ry="18"/>
<text text-anchor="middle" x="306" y="-276.3" font-family="Times,serif" font-size="14.00">gre4&#45;input</text>
</g>
<!-- ip4&#45;local&#45;&gt;gre4&#45;input -->
<g id="edge20" class="edge"><title>ip4&#45;local&#45;&gt;gre4&#45;input</title>
<path fill="none" stroke="black" d="M245.029,-194.328C256.569,-210.813 275.665,-238.093 289.206,-257.437"/>
<polygon fill="black" stroke="black" points="286.387,-259.514 294.989,-265.699 292.122,-255.5 286.387,-259.514"/>
</g>
<!-- ip4&#45;local&#45;&gt;ip4&#45;icmp&#45;input -->
<g id="edge21" class="edge"><title>ip4&#45;local&#45;&gt;ip4&#45;icmp&#45;input</title>
<path fill="none" stroke="black" d="M249.504,-170.469C258.89,-164.301 271.312,-156.138 282.023,-149.099"/>
<polygon fill="black" stroke="black" points="284.08,-151.936 290.515,-143.519 280.235,-146.086 284.08,-151.936"/>
</g>
<!-- ip4&#45;udp&#45;lookup -->
<g id="node20" class="node"><title>ip4&#45;udp&#45;lookup</title>
<ellipse fill="none" stroke="black" cx="306" cy="-226" rx="18" ry="18"/>
<text text-anchor="middle" x="306" y="-222.3" font-family="Times,serif" font-size="14.00">ip4&#45;udp&#45;lookup</text>
</g>
<!-- ip4&#45;local&#45;&gt;ip4&#45;udp&#45;lookup -->
<g id="edge22" class="edge"><title>ip4&#45;local&#45;&gt;ip4&#45;udp&#45;lookup</title>
<path fill="none" stroke="black" d="M249.504,-189.531C258.89,-195.699 271.312,-203.862 282.023,-210.901"/>
<polygon fill="black" stroke="black" points="280.235,-213.914 290.515,-216.481 284.08,-208.064 280.235,-213.914"/>
</g>
<!-- ip4&#45;rewrite&#45;local -->
<g id="node28" class="node"><title>ip4&#45;rewrite&#45;local</title>
<ellipse fill="blue" stroke="blue" cx="18" cy="-521" rx="18" ry="18"/>
<text text-anchor="middle" x="18" y="-517.3" font-family="Times,serif" font-size="14.00">ip4&#45;rewrite&#45;local</text>
</g>
<!-- TenGigabitEthernet89/0/0&#45;output -->
<g id="node29" class="node"><title>TenGigabitEthernet89/0/0&#45;output</title>
<ellipse fill="blue" stroke="blue" cx="18" cy="-575" rx="18" ry="18"/>
<text text-anchor="middle" x="18" y="-571.3" font-family="Times,serif" font-size="14.00">TenGigabitEthernet89/0/0&#45;output</text>
</g>
<!-- TenGigabitEthernet89/0/0&#45;tx -->
<g id="node30" class="node"><title>TenGigabitEthernet89/0/0&#45;tx</title>
<ellipse fill="blue" stroke="blue" cx="18" cy="-629" rx="18" ry="18"/>
<text text-anchor="middle" x="18" y="-625.3" font-family="Times,serif" font-size="14.00">TenGigabitEthernet89/0/0&#45;tx</text>
</g>
</g>
</svg>
